<?xml version="1.0" encoding="UTF-8" standalone="no"?>
<!-- Created with Inkscape (http://www.inkscape.org/) -->

<svg
   width="1920"
   height="1080"
   viewBox="0 0 508 285.75"
   version="1.1"
   id="svg5"
   inkscape:version="1.2.2 (732a01da63, 2022-12-09)"
   sodipodi:docname="digibrick-wallpaper-tools-v023.svg"
   xml:space="preserve"
   inkscape:export-filename="digibrick-wallpaper-tools-v022.png"
   inkscape:export-xdpi="96"
   inkscape:export-ydpi="96"
   xmlns:inkscape="http://www.inkscape.org/namespaces/inkscape"
   xmlns:sodipodi="http://sodipodi.sourceforge.net/DTD/sodipodi-0.dtd"
   xmlns:xlink="http://www.w3.org/1999/xlink"
   xmlns="http://www.w3.org/2000/svg"
   xmlns:svg="http://www.w3.org/2000/svg"><sodipodi:namedview
     id="namedview7"
     pagecolor="#ffffff"
     bordercolor="#000000"
     borderopacity="0.25"
     inkscape:showpageshadow="2"
     inkscape:pageopacity="0.0"
     inkscape:pagecheckerboard="0"
     inkscape:deskcolor="#d1d1d1"
     inkscape:document-units="mm"
     showgrid="false"
     inkscape:zoom="0.5"
     inkscape:cx="592"
     inkscape:cy="692"
     inkscape:window-width="1920"
     inkscape:window-height="1009"
     inkscape:window-x="3832"
     inkscape:window-y="-8"
     inkscape:window-maximized="1"
     inkscape:current-layer="layer2" /><defs
     id="defs2"><linearGradient
       inkscape:collect="always"
       id="linearGradient11161"><stop
         style="stop-color:#b2ffe8;stop-opacity:1;"
         offset="0"
         id="stop11157" /><stop
         style="stop-color:#b3e8ff;stop-opacity:1;"
         offset="1"
         id="stop11159" /></linearGradient><linearGradient
       inkscape:collect="always"
       id="linearGradient10395"><stop
         style="stop-color:#004359;stop-opacity:0.64999998;"
         offset="0"
         id="stop10391" /><stop
         style="stop-color:#005943;stop-opacity:0.64583325;"
         offset="1"
         id="stop10393" /></linearGradient><linearGradient
       inkscape:collect="always"
       id="linearGradient10387"><stop
         style="stop-color:#007da7;stop-opacity:0.64583325;"
         offset="0"
         id="stop10383" /><stop
         style="stop-color:#00a67d;stop-opacity:0.64999998;"
         offset="1"
         id="stop10385" /></linearGradient><linearGradient
       inkscape:collect="always"
       xlink:href="#linearGradient10387"
       id="linearGradient10389"
       x1="512.92255"
       y1="208.45416"
       x2="-397.84457"
       y2="499.53403"
       gradientUnits="userSpaceOnUse" /><linearGradient
       inkscape:collect="always"
       xlink:href="#linearGradient10395"
       id="linearGradient10397"
       x1="520.44641"
       y1="377.37909"
       x2="-396.88126"
       y2="593.28998"
       gradientUnits="userSpaceOnUse" /><linearGradient
       inkscape:collect="always"
       xlink:href="#linearGradient11161"
       id="linearGradient11163"
       x1="-396.54224"
       y1="331.57346"
       x2="515.28717"
       y2="-5.8872294"
       gradientUnits="userSpaceOnUse" /></defs><g
     inkscape:groupmode="layer"
     id="layer2"
     inkscape:label="Swirls"><rect
       style="display:inline;fill:url(#linearGradient11163);fill-opacity:1;stroke-width:0.519648"
       id="rect354"
       width="917.23444"
       height="610.60681"
       x="-399.24475"
       y="-15.312781"
       inkscape:label="Background"
       transform="matrix(0.55382382,0,0,0.46791475,221.15491,7.2093365)" /><path
       fill="#ff5500"
       fill-opacity="1"
       d="M 520.60994,172.85424 C 313.97662,230.53159 373.04256,220.36553 36.229775,317.4482 -235.805,398.29747 -399.17147,354.98396 -399.17147,354.98396 V 595.55981 H -322.8706 58.633405 440.13748 l 77.81122,-0.27156 z"
       id="path10-1"
       style="display:inline;fill:url(#linearGradient10389);fill-opacity:1;stroke-width:1.18637"
       sodipodi:nodetypes="ccccccccc"
       inkscape:label="MiddelSwirl"
       transform="matrix(0.55382382,0,0,0.46791475,221.15491,7.2093365)" /><path
       fill="#ff5500"
       fill-opacity="1"
       d="m -399.60823,595.55981 c 0,0 645.14494,-2.27195 917.55733,-0.25431 l 1.31743,-222.84848 c 0,0 -203.88606,-24.24271 -468.664056,30.53551 C -254.14426,469.72659 -401.1064,536.33911 -401.1064,536.33911 Z"
       id="path10-1-1"
       style="display:inline;fill:url(#linearGradient10397);fill-opacity:1;stroke-width:1.08717"
       sodipodi:nodetypes="cccccc"
       inkscape:label="Bottom Swirl"
       transform="matrix(0.55382382,0,0,0.46791475,221.15491,7.2093365)" /></g><g
     inkscape:groupmode="layer"
     id="layer1"
     inkscape:label="Logo"
     transform="matrix(0.71710835,0,0,0.68615446,237.63418,66.795893)"><text
       xml:space="preserve"
       style="font-size:34.4059px;font-family:'HoloLens MDL2 Assets';-inkscape-font-specification:'HoloLens MDL2 Assets';fill:#ccffff;fill-opacity:1;stroke-width:0.403191"
       x="187.71756"
       y="257.40451"
       id="text3855"
       transform="matrix(0.98509095,0,0,1.0151347,-1.5861963e-7,3.2153259e-6)"
       inkscape:label="Text"><tspan
         sodipodi:role="line"
         id="tspan3853"
         style="font-style:normal;font-variant:normal;font-weight:bold;font-stretch:normal;font-size:34.4059px;font-family:Ebrima;-inkscape-font-specification:'Ebrima Bold';fill:#ccffff;fill-opacity:1;stroke-width:0.403191"
         x="187.71756"
         y="257.40451"><tspan
   style="fill:#ccffff;fill-opacity:1;stroke-width:0.403191"
   id="tspan13176">DIGI</tspan>BRICK</tspan></text><g
       id="g14970"
       transform="matrix(0.85481107,0,0,0.8115431,-73.374618,231.36651)"
       style="fill:#d5f6ff"
       inkscape:label="Screwdriver Icon"><path
         d="m 443.75829,11.621867 c -0.0314,0.193116 -0.0926,4.088429 -0.0425,8.310881 7e-4,0.07786 0.0827,0.136834 0.22435,0.161508 0.46284,0.0807 1.29352,0.442784 1.64786,0.718251 0.9477,0.736712 0.9071,0.410788 0.95004,7.637664 0.02,3.368678 0.0525,5.033555 0.007,5.933571 -0.0449,0.879926 -0.16463,1.028546 -0.44421,1.323399 -0.97022,1.023537 -2.24086,1.232567 -3.71783,1.248879 -1.47684,0.01632 -3.02176,-0.410764 -3.77014,-1.203773 -0.25137,-0.266305 -0.3554,-0.33977 -0.41073,-1.457143 -0.0468,-0.945623 -0.055,-2.640009 -0.0743,-5.835638 -0.0367,-6.013327 -0.0259,-6.61949 0.12363,-6.885684 0.33661,-0.599384 1.10289,-1.127364 2.02798,-1.39725 l 0.56799,-0.165769 -0.0245,-4.127094 c -0.0136,-2.282682 0.0178,-4.064528 -0.005,-4.23348 -0.70616,-0.769936 -0.65629,-1.482823 -0.52639,-2.1398828 0.12989,-0.6571364 0.34122,-1.6441093 0.54109,-2.4280361 l 2.75293,0.00474 c 0.21218,0.6894385 0.42074,1.8133325 0.5861,2.39472 0.16523,0.5814659 0.27147,1.4052619 -0.41388,2.1401519 z"
         fill="#000000"
         id="path1543-4"
         style="fill:#0a2326;fill-opacity:1;stroke-width:0.0994429"
         inkscape:label="Body" /><path
         d="m 443.95262,34.80191 c 0.40969,-0.0041 0.73579,-0.196141 0.72873,-0.428827 l -0.0701,-11.786471 c 0.003,-0.151988 -0.13858,-0.293133 -0.3702,-0.369341 -0.23164,-0.07614 -0.51758,-0.07558 -0.74843,0.0014 -0.23072,0.07712 -0.37054,0.21881 -0.36581,0.370787 l 0.07,11.786467 c -0.002,0.113914 0.0771,0.223477 0.2194,0.303688 0.14233,0.08021 0.33576,0.124274 0.53632,0.122229 z"
         fill="#ffffff"
         id="path1558"
         style="fill:#cdffff;fill-opacity:1;stroke-width:0.0994429"
         inkscape:label="Indent2" /><path
         d="m 440.78582,34.808122 c 0.40956,-0.0041 0.73579,-0.196145 0.72873,-0.428831 l -0.0701,-11.78647 c 0.003,-0.151987 -0.13858,-0.29313 -0.37033,-0.36934 -0.23164,-0.07615 -0.51757,-0.07558 -0.7483,0.0014 -0.23072,0.07712 -0.37054,0.21881 -0.36581,0.370788 l 0.0701,11.786466 c -0.002,0.113919 0.077,0.223482 0.21939,0.303693 0.14232,0.08021 0.33576,0.12427 0.53631,0.122228 z"
         fill="#ffffff"
         id="path1560"
         style="fill:#ccffff;fill-opacity:1;stroke-width:0.0994429"
         inkscape:label="Indent1" /></g><path
       class="cls-1"
       d="m 194.29661,252.51649 a 3.8833176,3.7916981 0 1 1 3.85557,-3.82736 3.8833176,3.7916981 0 0 1 -3.85557,3.82736 z m -9.41333,-12.15465 0.0186,1.92559 5.39388,-0.0495 a 9.9514258,9.7166403 0 0 0 -1.26239,1.37419 l -4.81263,0.0443 a 0.69886147,0.68237313 0 0 1 -0.70314,-0.67151 l -0.0251,-2.61013 a 2.0355189,1.9874945 0 1 1 1.39087,-0.0125 z m 0.62121,13.97143 3.08706,-0.0283 a 10.127837,9.8888899 0 0 0 1.03309,1.35087 l -3.41272,0.0314 0.0155,1.54576 a 2.0355189,1.9874945 0 1 1 -1.39075,0.026 l -0.0216,-2.24135 a 0.69433809,0.67795647 0 0 1 0.69002,-0.68434 z m -7.5926,3.53931 a 2.0355189,1.9874945 0 1 0 2.84334,-1.84813 l -0.0384,-3.9748 6.80966,-0.0626 a 9.8157246,9.5841407 0 0 1 -0.30036,-1.35763 l -7.21673,0.0665 a 0.69886147,0.68237313 0 0 0 -0.68775,0.68653 l 0.044,4.56222 a 2.0355189,1.9874945 0 0 0 -1.4538,1.92807 z m -0.0725,-11.02599 a 2.0355189,1.9874945 0 0 0 3.9621,0.64372 l 5.50922,-0.0508 a 9.5171818,9.2926416 0 0 1 0.3804,-1.36169 l -5.90274,0.0544 a 2.0355189,1.9874945 0 0 0 -3.94898,0.71434 z m 16.46197,-9.06696 0.80511,-0.007 a 1.3864146,1.3537046 0 0 1 1.39712,1.33649 l 0.0139,1.38234 a 8.6192917,8.4159354 0 0 1 2.26965,0.81389 l 0.93644,-0.93174 a 1.3864146,1.3537046 0 0 1 1.95627,-0.018 l 1.15294,1.11347 a 1.3886761,1.3559129 0 0 1 0.0186,1.91013 l -0.85352,0.84926 a 8.5944133,8.3916439 0 0 1 1.03295,2.2718 l 1.18055,-0.0105 a 1.3864146,1.3537046 0 0 1 1.39711,1.33647 l 0.0155,1.58993 a 1.3864146,1.3537046 0 0 1 -1.37099,1.3686 l -1.15793,0.0105 a 8.5944133,8.3916439 0 0 1 -0.98188,2.31464 l 0.84009,0.80497 a 1.3886761,1.3559129 0 0 1 0.0186,1.90792 l -1.1403,1.13457 a 1.3864146,1.3537046 0 0 1 -1.95627,0.018 l -0.91317,-0.87497 a 8.5944133,8.3916439 0 0 1 -2.28273,0.87569 l 0.0123,1.32493 a 1.3864146,1.3537046 0 0 1 -1.37333,1.35978 l -1.62608,0.0143 a 1.3864146,1.3537046 0 0 1 -1.38746,-1.27253 l -0.0437,-4.52245 a 5.5501814,5.419235 0 0 0 1.90967,0.30926 c 0.0972,-8.3e-4 0.1945,-0.001 0.28948,-0.002 0.0949,-8.3e-4 0.19224,-10e-4 0.28723,-0.002 a 5.5660132,5.4346933 0 1 0 -0.10517,-10.86667 c -0.0949,8.3e-4 -0.19224,10e-4 -0.28722,0.002 -0.0949,8.4e-4 -0.19223,0.001 -0.28948,0.002 a 5.5501814,5.419235 0 0 0 -1.90335,0.34438 l -0.0443,-4.58207 a 1.3864146,1.3537046 0 0 1 1.36941,-1.29792 z"
       id="path12015"
       style="fill:#0a2326;fill-opacity:1;fill-rule:evenodd;stroke-width:0.223486"
       inkscape:label="Digi Icon" /><text
       xml:space="preserve"
       style="font-size:5.02919px;font-family:'HoloLens MDL2 Assets';-inkscape-font-specification:'HoloLens MDL2 Assets';fill:#41eafe;fill-opacity:1;stroke-width:0.377189"
       x="182.1989"
       y="265.47467"
       id="text12094"
       transform="scale(0.97817948,1.0223073)"><tspan
         sodipodi:role="line"
         id="tspan12092"
         style="font-size:5.02919px;stroke-width:0.377189"
         x="182.1989"
         y="265.47467" /></text><text
       xml:space="preserve"
       style="font-style:normal;font-variant:normal;font-weight:normal;font-stretch:normal;font-size:5.94332px;font-family:Arial;-inkscape-font-specification:Arial;fill:#a6fefe;fill-opacity:1;stroke-width:0.445749"
       x="161.88385"
       y="311.7164"
       id="text12148"
       transform="scale(1.1559794,0.86506735)"><tspan
         sodipodi:role="line"
         id="tspan12146"
         style="fill:#a6fefe;fill-opacity:1;stroke-width:0.445749"
         x="161.88385"
         y="311.7164">BUILDING THE DIGITAL FUTURE</tspan></text></g></svg>
